<?xml version="1.0" encoding="UTF-8" standalone="no"?>
<!-- Created with Inkscape (http://www.inkscape.org/) -->

<svg
   xmlns:dc="http://purl.org/dc/elements/1.1/"
   xmlns:cc="http://creativecommons.org/ns#"
   xmlns:rdf="http://www.w3.org/1999/02/22-rdf-syntax-ns#"
   xmlns:svg="http://www.w3.org/2000/svg"
   xmlns="http://www.w3.org/2000/svg"
   xmlns:sodipodi="http://sodipodi.sourceforge.net/DTD/sodipodi-0.dtd"
   xmlns:inkscape="http://www.inkscape.org/namespaces/inkscape"
   width="210mm"
   height="297mm"
   viewBox="0 0 744.09448819 1052.3622047"
   id="svg3354"
   version="1.1"
   inkscape:version="0.91 r"
   sodipodi:docname="logo.svg">
  <defs
     id="defs3356" />
  <sodipodi:namedview
     id="base"
     pagecolor="#ffffff"
     bordercolor="#666666"
     borderopacity="1.0"
     inkscape:pageopacity="0.0"
     inkscape:pageshadow="2"
     inkscape:zoom="0.35"
     inkscape:cx="-286.42857"
     inkscape:cy="520"
     inkscape:document-units="px"
     inkscape:current-layer="layer1"
     showgrid="false"
     inkscape:window-width="1920"
     inkscape:window-height="1028"
     inkscape:window-x="0"
     inkscape:window-y="0"
     inkscape:window-maximized="1" />
  <metadata
     id="metadata3359">
    <rdf:RDF>
      <cc:Work
         rdf:about="">
        <dc:format>image/svg+xml</dc:format>
        <dc:type
           rdf:resource="http://purl.org/dc/dcmitype/StillImage" />
        <dc:title></dc:title>
      </cc:Work>
    </rdf:RDF>
  </metadata>
  <g
     inkscape:label="Ebene 1"
     inkscape:groupmode="layer"
     id="layer1">
    <g
       id="surface2"
       transform="matrix(6.4984586,0,0,6.5021467,-1187.8842,-150.90198)">
      <path
         inkscape:connector-curvature="0"
         style="fill:#7d7d7d;fill-opacity:1;fill-rule:evenodd;stroke:none"
         d="M 273.10156,89.148438 240.5,76.5 l 0,11 23.55078,9.699219 -0.5,2.699219 C 261.25,113.10156 254.10156,125.55078 242.10156,137.25 l -1.60156,1.55078 0,11.14844 c 4.80078,-4.30078 9.05078,-8.56641 12.75,-12.80078 3.69922,-4.26563 6.89844,-8.75 9.60156,-13.44922 2.66406,-4.69922 4.84766,-9.86719 6.54688,-15.5 1.70312,-5.63281 2.93359,-11.984376 3.70312,-19.050782 M 240.5,94.898438 240.5,129 c 8.23437,-8.86719 13.46484,-18.05078 15.69922,-27.55078 L 240.5,94.898438 M 287.05078,80.5 l -0.40234,4.648438 -0.25,2.601562 c -0.76563,8.632812 -2.16407,16.46484 -4.19922,23.5 -2.03125,7.03516 -4.80078,13.53516 -8.30078,19.5 -2.53125,4.30078 -5.38282,8.31641 -8.54688,12.05078 -3.13672,3.76563 -6.40234,7.28125 -9.80078,10.55078 -3.36719,3.23047 -6.66797,6.26563 -9.90234,9.09766 l -2.14844,1.85156 -3,2.64844 0,-8.05078 1.30078,-1.14844 c 5.76563,-5 10.86719,-9.93359 15.30078,-14.80078 4.4336,-4.83203 8.23047,-9.94922 11.39844,-15.34766 3.16797,-5.36718 5.73437,-11.35156 7.69922,-17.95312 1.93359,-6.56641 3.28515,-14.046878 4.05078,-22.449221 l 0.19922,-2.597657 -39.94922,-15.5 0,-6.652343 L 287.05078,80.5"
         id="path5" />
      <path
         inkscape:connector-curvature="0"
         style="fill:#265797;fill-opacity:1;fill-rule:evenodd;stroke:none"
         d="m 240.5,159 -1.44922,-1.10156 c -8.43359,-6.46485 -15.5,-13.41407 -21.19922,-20.84766 C 212.18359,129.64844 207.81641,121.63281 204.75,113 201.68359,104.39844 199.86719,95.101562 199.30078,85.101562 L 206.10156,82.5 c 0.5,13.832031 3.58203,26.28516 9.25,37.35156 C 221.01562,130.94922 229.39844,141 240.5,150 l 0,-11.19922 -1.60156,-1.55078 c -3.96485,-3.83203 -7.38282,-7.71484 -10.25,-11.64844 -2.83203,-3.96875 -5.21485,-8.13672 -7.14844,-12.5 -1.89844,-4.40234 -3.38281,-9.18359 -4.44922,-14.35156 C 215.94922,93.617188 215.18359,87.933594 214.75,81.699219 L 214.60156,79.148438 240.5,69.101562 l 0,-6.652343 -47.64844,18.5 0.25,4.5 c 0.46485,8.066406 1.6836,15.652341 3.64844,22.750001 1.93359,7.13281 4.64844,13.88281 8.14844,20.25 3.46875,6.36719 7.66797,12.40234 12.60156,18.10156 4.96484,5.69922 10.81641,11.13281 17.55078,16.30078 l 2.19922,1.69922 3.25,2.5 0,-8.05078 M 221.85156,83.75 240.5,76.5 l 0,52.60156 c -3.43359,-3.5664 -6.43359,-7.43359 -9,-11.60156 -2.53516,-4.13281 -4.61719,-8.93359 -6.25,-14.39844 -1.63281,-5.433591 -2.76563,-11.886716 -3.39844,-19.35156"
         id="path7" />
    </g>
  </g>
</svg>
